<?xml version="1.0" encoding="UTF-8" standalone="no"?>
<!DOCTYPE svg PUBLIC "-//W3C//DTD SVG 1.1//EN"
 "http://www.w3.org/Graphics/SVG/1.1/DTD/svg11.dtd">
<!-- Generated by graphviz version 3.0.0 (20220226.1711)
 -->
<!-- Title: dependencies Pages: 1 -->
<svg width="952pt" height="247pt"
 viewBox="0.00 0.00 952.00 246.80" xmlns="http://www.w3.org/2000/svg" xmlns:xlink="http://www.w3.org/1999/xlink">
<g id="graph0" class="graph" transform="scale(1 1) rotate(0) translate(4 242.8)">
<title>dependencies</title>
<polygon fill="white" stroke="transparent" points="-4,4 -4,-242.8 948,-242.8 948,4 -4,4"/>
<text text-anchor="middle" x="472" y="-8.2" font-family="sans-serif" font-size="14.00">dependencies</text>
<g id="clust1" class="cluster">
<title>cluster_FileManagerAPIModule</title>
<polygon fill="none" stroke="black" stroke-dasharray="1,5" points="8,-32.8 8,-230.8 936,-230.8 936,-32.8 8,-32.8"/>
</g>
<g id="clust3" class="cluster">
<title>cluster_FileManagerAPIModule_imports</title>
<polygon fill="none" stroke="black" points="670,-40.8 670,-92.8 928,-92.8 928,-40.8 670,-40.8"/>
</g>
<g id="clust4" class="cluster">
<title>cluster_FileManagerAPIModule_exports</title>
<polygon fill="none" stroke="black" points="463,-170.8 463,-222.8 635,-222.8 635,-170.8 463,-170.8"/>
</g>
<g id="clust6" class="cluster">
<title>cluster_FileManagerAPIModule_providers</title>
<polygon fill="none" stroke="black" points="16,-40.8 16,-92.8 662,-92.8 662,-40.8 16,-40.8"/>
</g>
<!-- AuthModule -->
<g id="node1" class="node">
<title>AuthModule</title>
<polygon fill="#8dd3c7" stroke="black" points="919.55,-84.8 916.55,-88.8 895.55,-88.8 892.55,-84.8 832.45,-84.8 832.45,-48.8 919.55,-48.8 919.55,-84.8"/>
<text text-anchor="middle" x="876" y="-62.6" font-family="Times,serif" font-size="14.00">AuthModule</text>
</g>
<!-- FileManagerAPIModule -->
<g id="node3" class="node">
<title>FileManagerAPIModule</title>
<polygon fill="#8dd3c7" stroke="black" points="625.64,-149.8 622.64,-153.8 601.64,-153.8 598.64,-149.8 472.36,-149.8 472.36,-113.8 625.64,-113.8 625.64,-149.8"/>
<text text-anchor="middle" x="549" y="-127.6" font-family="Times,serif" font-size="14.00">FileManagerAPIModule</text>
</g>
<!-- AuthModule&#45;&gt;FileManagerAPIModule -->
<g id="edge1" class="edge">
<title>AuthModule&#45;&gt;FileManagerAPIModule</title>
<path fill="none" stroke="black" d="M876,-85.08C876,-106.12 876,-137.8 876,-137.8 876,-137.8 635.67,-137.8 635.67,-137.8"/>
<polygon fill="black" stroke="black" points="635.67,-134.3 625.67,-137.8 635.67,-141.3 635.67,-134.3"/>
</g>
<!-- DataManagerModule -->
<g id="node2" class="node">
<title>DataManagerModule</title>
<polygon fill="#8dd3c7" stroke="black" points="813.73,-84.8 810.73,-88.8 789.73,-88.8 786.73,-84.8 678.27,-84.8 678.27,-48.8 813.73,-48.8 813.73,-84.8"/>
<text text-anchor="middle" x="746" y="-62.6" font-family="Times,serif" font-size="14.00">DataManagerModule</text>
</g>
<!-- DataManagerModule&#45;&gt;FileManagerAPIModule -->
<g id="edge2" class="edge">
<title>DataManagerModule&#45;&gt;FileManagerAPIModule</title>
<path fill="none" stroke="black" d="M746,-84.82C746,-102.17 746,-125.8 746,-125.8 746,-125.8 635.73,-125.8 635.73,-125.8"/>
<polygon fill="black" stroke="black" points="635.73,-122.3 625.73,-125.8 635.73,-129.3 635.73,-122.3"/>
</g>
<!-- FileManagerAPIService  -->
<g id="node4" class="node">
<title>FileManagerAPIService </title>
<polygon fill="#fb8072" stroke="black" points="626.57,-214.8 471.43,-214.8 471.43,-178.8 626.57,-178.8 626.57,-214.8"/>
<text text-anchor="middle" x="549" y="-192.6" font-family="Times,serif" font-size="14.00">FileManagerAPIService </text>
</g>
<!-- FileManagerAPIModule&#45;&gt;FileManagerAPIService  -->
<g id="edge3" class="edge">
<title>FileManagerAPIModule&#45;&gt;FileManagerAPIService </title>
<path fill="none" stroke="black" stroke-dasharray="5,2" d="M549,-149.91C549,-149.91 549,-168.79 549,-168.79"/>
<polygon fill="black" stroke="black" points="545.5,-168.79 549,-178.79 552.5,-168.79 545.5,-168.79"/>
</g>
<!-- FileManagerAPIService -->
<g id="node5" class="node">
<title>FileManagerAPIService</title>
<ellipse fill="#fdb462" stroke="black" cx="549" cy="-66.8" rx="104.79" ry="18"/>
<text text-anchor="middle" x="549" y="-62.6" font-family="Times,serif" font-size="14.00">FileManagerAPIService</text>
</g>
<!-- FileManagerAPIService&#45;&gt;FileManagerAPIModule -->
<g id="edge4" class="edge">
<title>FileManagerAPIService&#45;&gt;FileManagerAPIModule</title>
<path fill="none" stroke="black" d="M549,-84.91C549,-84.91 549,-103.79 549,-103.79"/>
<polygon fill="black" stroke="black" points="545.5,-103.79 549,-113.79 552.5,-103.79 545.5,-103.79"/>
</g>
<!-- FileManagerFTPService -->
<g id="node6" class="node">
<title>FileManagerFTPService</title>
<ellipse fill="#fdb462" stroke="black" cx="320" cy="-66.8" rx="105.95" ry="18"/>
<text text-anchor="middle" x="320" y="-62.6" font-family="Times,serif" font-size="14.00">FileManagerFTPService</text>
</g>
<!-- FileManagerFTPService&#45;&gt;FileManagerAPIModule -->
<g id="edge5" class="edge">
<title>FileManagerFTPService&#45;&gt;FileManagerAPIModule</title>
<path fill="none" stroke="black" d="M320,-84.82C320,-102.17 320,-125.8 320,-125.8 320,-125.8 462.11,-125.8 462.11,-125.8"/>
<polygon fill="black" stroke="black" points="462.11,-129.3 472.11,-125.8 462.11,-122.3 462.11,-129.3"/>
</g>
<!-- FileUtilitiesService -->
<g id="node7" class="node">
<title>FileUtilitiesService</title>
<ellipse fill="#fdb462" stroke="black" cx="110" cy="-66.8" rx="86.27" ry="18"/>
<text text-anchor="middle" x="110" y="-62.6" font-family="Times,serif" font-size="14.00">FileUtilitiesService</text>
</g>
<!-- FileUtilitiesService&#45;&gt;FileManagerAPIModule -->
<g id="edge6" class="edge">
<title>FileUtilitiesService&#45;&gt;FileManagerAPIModule</title>
<path fill="none" stroke="black" d="M110,-85.08C110,-106.12 110,-137.8 110,-137.8 110,-137.8 462.28,-137.8 462.28,-137.8"/>
<polygon fill="black" stroke="black" points="462.28,-141.3 472.28,-137.8 462.28,-134.3 462.28,-141.3"/>
</g>
</g>
</svg>
