<?xml version="1.0" encoding="UTF-8" standalone="no"?>
<!DOCTYPE svg PUBLIC "-//W3C//DTD SVG 1.1//EN"
 "http://www.w3.org/Graphics/SVG/1.1/DTD/svg11.dtd">
<!-- Generated by graphviz version 3.0.0 (20220226.1711)
 -->
<!-- Title: dependencies Pages: 1 -->
<svg width="206pt" height="247pt"
 viewBox="0.00 0.00 206.00 246.80" xmlns="http://www.w3.org/2000/svg" xmlns:xlink="http://www.w3.org/1999/xlink">
<g id="graph0" class="graph" transform="scale(1 1) rotate(0) translate(4 242.8)">
<title>dependencies</title>
<polygon fill="white" stroke="transparent" points="-4,4 -4,-242.8 202,-242.8 202,4 -4,4"/>
<text text-anchor="middle" x="99" y="-8.2" font-family="sans-serif" font-size="14.00">dependencies</text>
<g id="clust1" class="cluster">
<title>cluster_ReadFileModule</title>
<polygon fill="none" stroke="black" stroke-dasharray="1,5" points="8,-32.8 8,-230.8 190,-230.8 190,-32.8 8,-32.8"/>
</g>
<g id="clust4" class="cluster">
<title>cluster_ReadFileModule_exports</title>
<polygon fill="none" stroke="black" points="35,-170.8 35,-222.8 163,-222.8 163,-170.8 35,-170.8"/>
</g>
<g id="clust6" class="cluster">
<title>cluster_ReadFileModule_providers</title>
<polygon fill="none" stroke="black" points="16,-40.8 16,-92.8 182,-92.8 182,-40.8 16,-40.8"/>
</g>
<!-- ReadFileService  -->
<g id="node1" class="node">
<title>ReadFileService </title>
<polygon fill="#fb8072" stroke="black" points="155.02,-214.8 42.98,-214.8 42.98,-178.8 155.02,-178.8 155.02,-214.8"/>
<text text-anchor="middle" x="99" y="-192.6" font-family="Times,serif" font-size="14.00">ReadFileService </text>
</g>
<!-- ReadFileModule -->
<g id="node2" class="node">
<title>ReadFileModule</title>
<polygon fill="#8dd3c7" stroke="black" points="154.1,-149.8 151.1,-153.8 130.1,-153.8 127.1,-149.8 43.9,-149.8 43.9,-113.8 154.1,-113.8 154.1,-149.8"/>
<text text-anchor="middle" x="99" y="-127.6" font-family="Times,serif" font-size="14.00">ReadFileModule</text>
</g>
<!-- ReadFileModule&#45;&gt;ReadFileService  -->
<g id="edge1" class="edge">
<title>ReadFileModule&#45;&gt;ReadFileService </title>
<path fill="none" stroke="black" stroke-dasharray="5,2" d="M99,-149.91C99,-149.91 99,-168.79 99,-168.79"/>
<polygon fill="black" stroke="black" points="95.5,-168.79 99,-178.79 102.5,-168.79 95.5,-168.79"/>
</g>
<!-- ReadFileService -->
<g id="node3" class="node">
<title>ReadFileService</title>
<ellipse fill="#fdb462" stroke="black" cx="99" cy="-66.8" rx="74.72" ry="18"/>
<text text-anchor="middle" x="99" y="-62.6" font-family="Times,serif" font-size="14.00">ReadFileService</text>
</g>
<!-- ReadFileService&#45;&gt;ReadFileModule -->
<g id="edge2" class="edge">
<title>ReadFileService&#45;&gt;ReadFileModule</title>
<path fill="none" stroke="black" d="M99,-84.91C99,-84.91 99,-103.79 99,-103.79"/>
<polygon fill="black" stroke="black" points="95.5,-103.79 99,-113.79 102.5,-103.79 95.5,-103.79"/>
</g>
</g>
</svg>
