<?xml version="1.0" encoding="UTF-8" standalone="no"?>
<!DOCTYPE svg PUBLIC "-//W3C//DTD SVG 1.1//EN"
 "http://www.w3.org/Graphics/SVG/1.1/DTD/svg11.dtd">
<!-- Generated by graphviz version 3.0.0 (20220226.1711)
 -->
<!-- Title: dependencies Pages: 1 -->
<svg width="1986pt" height="337pt"
 viewBox="0.00 0.00 1986.00 336.80" xmlns="http://www.w3.org/2000/svg" xmlns:xlink="http://www.w3.org/1999/xlink">
<g id="graph0" class="graph" transform="scale(1 1) rotate(0) translate(4 332.8)">
<title>dependencies</title>
<polygon fill="white" stroke="transparent" points="-4,4 -4,-332.8 1982,-332.8 1982,4 -4,4"/>
<text text-anchor="middle" x="989" y="-8.2" font-family="sans-serif" font-size="14.00">dependencies</text>
<g id="clust1" class="cluster">
<title>cluster_AppModule</title>
<polygon fill="none" stroke="black" stroke-dasharray="1,5" points="858,-32.8 858,-312.8 1234,-312.8 1234,-32.8 858,-32.8"/>
</g>
<g id="clust3" class="cluster">
<title>cluster_AppModule_imports</title>
<polygon fill="none" stroke="black" points="1036,-40.8 1036,-236.8 1226,-236.8 1226,-40.8 1036,-40.8"/>
</g>
<g id="clust6" class="cluster">
<title>cluster_AppModule_providers</title>
<polygon fill="none" stroke="black" points="898,-184.8 898,-236.8 1028,-236.8 1028,-184.8 898,-184.8"/>
</g>
<g id="clust7" class="cluster">
<title>cluster_AuthModule</title>
<polygon fill="none" stroke="black" stroke-dasharray="1,5" points="1630,-32.8 1630,-244.8 1780,-244.8 1780,-32.8 1630,-32.8"/>
</g>
<g id="clust10" class="cluster">
<title>cluster_AuthModule_exports</title>
<polygon fill="none" stroke="black" points="1638,-184.8 1638,-236.8 1744,-236.8 1744,-184.8 1638,-184.8"/>
</g>
<g id="clust12" class="cluster">
<title>cluster_AuthModule_providers</title>
<polygon fill="none" stroke="black" points="1638,-40.8 1638,-92.8 1772,-92.8 1772,-40.8 1638,-40.8"/>
</g>
<g id="clust13" class="cluster">
<title>cluster_DataManagerModule</title>
<polygon fill="none" stroke="black" stroke-dasharray="1,5" points="1242,-108.8 1242,-176.8 1622,-176.8 1622,-108.8 1242,-108.8"/>
</g>
<g id="clust16" class="cluster">
<title>cluster_DataManagerModule_exports</title>
<polygon fill="none" stroke="black" points="1460,-116.8 1460,-168.8 1614,-168.8 1614,-116.8 1460,-116.8"/>
</g>
<g id="clust18" class="cluster">
<title>cluster_DataManagerModule_providers</title>
<polygon fill="none" stroke="black" points="1250,-116.8 1250,-168.8 1452,-168.8 1452,-116.8 1250,-116.8"/>
</g>
<g id="clust19" class="cluster">
<title>cluster_FileManagerAPIModule</title>
<polygon fill="none" stroke="black" stroke-dasharray="1,5" points="8,-32.8 8,-100.8 850,-100.8 850,-32.8 8,-32.8"/>
</g>
<g id="clust22" class="cluster">
<title>cluster_FileManagerAPIModule_exports</title>
<polygon fill="none" stroke="black" points="670,-40.8 670,-92.8 842,-92.8 842,-40.8 670,-40.8"/>
</g>
<g id="clust24" class="cluster">
<title>cluster_FileManagerAPIModule_providers</title>
<polygon fill="none" stroke="black" points="16,-40.8 16,-92.8 662,-92.8 662,-40.8 16,-40.8"/>
</g>
<g id="clust25" class="cluster">
<title>cluster_LinkDownloadAPIModule</title>
<polygon fill="none" stroke="black" stroke-dasharray="1,5" points="1242,-252.8 1242,-320.8 1694,-320.8 1694,-252.8 1242,-252.8"/>
</g>
<g id="clust28" class="cluster">
<title>cluster_LinkDownloadAPIModule_exports</title>
<polygon fill="none" stroke="black" points="1502,-260.8 1502,-312.8 1686,-312.8 1686,-260.8 1502,-260.8"/>
</g>
<g id="clust30" class="cluster">
<title>cluster_LinkDownloadAPIModule_providers</title>
<polygon fill="none" stroke="black" points="1250,-260.8 1250,-312.8 1494,-312.8 1494,-260.8 1250,-260.8"/>
</g>
<g id="clust31" class="cluster">
<title>cluster_ReadFileModule</title>
<polygon fill="none" stroke="black" stroke-dasharray="1,5" points="1788,-32.8 1788,-244.8 1970,-244.8 1970,-32.8 1788,-32.8"/>
</g>
<g id="clust34" class="cluster">
<title>cluster_ReadFileModule_exports</title>
<polygon fill="none" stroke="black" points="1815,-184.8 1815,-236.8 1943,-236.8 1943,-184.8 1815,-184.8"/>
</g>
<g id="clust36" class="cluster">
<title>cluster_ReadFileModule_providers</title>
<polygon fill="none" stroke="black" points="1796,-40.8 1796,-92.8 1962,-92.8 1962,-40.8 1796,-40.8"/>
</g>
<!-- DataManagerModule -->
<g id="node1" class="node">
<title>DataManagerModule</title>
<polygon fill="#8dd3c7" stroke="black" points="1217.73,-84.8 1214.73,-88.8 1193.73,-88.8 1190.73,-84.8 1082.27,-84.8 1082.27,-48.8 1217.73,-48.8 1217.73,-84.8"/>
<text text-anchor="middle" x="1150" y="-62.6" font-family="Times,serif" font-size="14.00">DataManagerModule</text>
</g>
<!-- FileManagerAPIModule -->
<g id="node2" class="node">
<title>FileManagerAPIModule</title>
<polygon fill="#8dd3c7" stroke="black" points="1197.64,-160.8 1194.64,-164.8 1173.64,-164.8 1170.64,-160.8 1044.36,-160.8 1044.36,-124.8 1197.64,-124.8 1197.64,-160.8"/>
<text text-anchor="middle" x="1121" y="-138.6" font-family="Times,serif" font-size="14.00">FileManagerAPIModule</text>
</g>
<!-- DataManagerModule&#45;&gt;FileManagerAPIModule -->
<g id="edge11" class="edge">
<title>DataManagerModule&#45;&gt;FileManagerAPIModule</title>
<path fill="none" stroke="black" d="M1120.7,-84.81C1120.7,-84.81 1120.7,-114.65 1120.7,-114.65"/>
<polygon fill="black" stroke="black" points="1117.2,-114.65 1120.7,-124.65 1124.2,-114.65 1117.2,-114.65"/>
</g>
<!-- LinkDownloadAPIModule -->
<g id="node3" class="node">
<title>LinkDownloadAPIModule</title>
<polygon fill="#8dd3c7" stroke="black" points="1218.38,-228.8 1215.38,-232.8 1194.38,-232.8 1191.38,-228.8 1051.62,-228.8 1051.62,-192.8 1218.38,-192.8 1218.38,-228.8"/>
<text text-anchor="middle" x="1135" y="-206.6" font-family="Times,serif" font-size="14.00">LinkDownloadAPIModule</text>
</g>
<!-- DataManagerModule&#45;&gt;LinkDownloadAPIModule -->
<g id="edge17" class="edge">
<title>DataManagerModule&#45;&gt;LinkDownloadAPIModule</title>
<path fill="none" stroke="black" d="M1204.5,-85.04C1204.5,-85.04 1204.5,-182.71 1204.5,-182.71"/>
<polygon fill="black" stroke="black" points="1201,-182.71 1204.5,-192.71 1208,-182.71 1201,-182.71"/>
</g>
<!-- AppModule -->
<g id="node4" class="node">
<title>AppModule</title>
<polygon fill="#8dd3c7" stroke="black" points="976.66,-304.8 973.66,-308.8 952.66,-308.8 949.66,-304.8 893.34,-304.8 893.34,-268.8 976.66,-268.8 976.66,-304.8"/>
<text text-anchor="middle" x="935" y="-282.6" font-family="Times,serif" font-size="14.00">AppModule</text>
</g>
<!-- DataManagerModule&#45;&gt;AppModule -->
<g id="edge1" class="edge">
<title>DataManagerModule&#45;&gt;AppModule</title>
<path fill="none" stroke="black" d="M1081.95,-72.8C1007.86,-72.8 899.77,-72.8 899.77,-72.8 899.77,-72.8 899.77,-258.55 899.77,-258.55"/>
<polygon fill="black" stroke="black" points="896.27,-258.55 899.77,-268.55 903.27,-258.55 896.27,-258.55"/>
</g>
<!-- AuthModule -->
<g id="node6" class="node">
<title>AuthModule</title>
<polygon fill="#8dd3c7" stroke="black" points="1725.55,-160.8 1722.55,-164.8 1701.55,-164.8 1698.55,-160.8 1638.45,-160.8 1638.45,-124.8 1725.55,-124.8 1725.55,-160.8"/>
<text text-anchor="middle" x="1682" y="-138.6" font-family="Times,serif" font-size="14.00">AuthModule</text>
</g>
<!-- DataManagerModule&#45;&gt;AuthModule -->
<g id="edge5" class="edge">
<title>DataManagerModule&#45;&gt;AuthModule</title>
<path fill="none" stroke="black" d="M1217.97,-60.8C1352.7,-60.8 1640.71,-60.8 1640.71,-60.8 1640.71,-60.8 1640.71,-114.6 1640.71,-114.6"/>
<polygon fill="black" stroke="black" points="1637.21,-114.6 1640.71,-124.6 1644.21,-114.6 1637.21,-114.6"/>
</g>
<!-- DataManagerService  -->
<g id="node9" class="node">
<title>DataManagerService </title>
<polygon fill="#fb8072" stroke="black" points="1605.66,-160.8 1468.34,-160.8 1468.34,-124.8 1605.66,-124.8 1605.66,-160.8"/>
<text text-anchor="middle" x="1537" y="-138.6" font-family="Times,serif" font-size="14.00">DataManagerService </text>
</g>
<!-- DataManagerModule&#45;&gt;DataManagerService  -->
<g id="edge8" class="edge">
<title>DataManagerModule&#45;&gt;DataManagerService </title>
<path fill="none" stroke="black" stroke-dasharray="5,2" d="M1217.85,-72.8C1328.84,-72.8 1537,-72.8 1537,-72.8 1537,-72.8 1537,-114.77 1537,-114.77"/>
<polygon fill="black" stroke="black" points="1533.5,-114.77 1537,-124.77 1540.5,-114.77 1533.5,-114.77"/>
</g>
<!-- FileManagerAPIModule&#45;&gt;LinkDownloadAPIModule -->
<g id="edge18" class="edge">
<title>FileManagerAPIModule&#45;&gt;LinkDownloadAPIModule</title>
<path fill="none" stroke="black" d="M1124.69,-161.02C1124.69,-161.02 1124.69,-182.53 1124.69,-182.53"/>
<polygon fill="black" stroke="black" points="1121.19,-182.53 1124.69,-192.53 1128.19,-182.53 1121.19,-182.53"/>
</g>
<!-- FileManagerAPIModule&#45;&gt;AppModule -->
<g id="edge2" class="edge">
<title>FileManagerAPIModule&#45;&gt;AppModule</title>
<path fill="none" stroke="black" d="M1047.87,-161.04C1047.87,-199.79 1047.87,-286.8 1047.87,-286.8 1047.87,-286.8 986.71,-286.8 986.71,-286.8"/>
<polygon fill="black" stroke="black" points="986.71,-283.3 976.71,-286.8 986.71,-290.3 986.71,-283.3"/>
</g>
<!-- FileManagerAPIService  -->
<g id="node11" class="node">
<title>FileManagerAPIService </title>
<polygon fill="#fb8072" stroke="black" points="833.57,-84.8 678.43,-84.8 678.43,-48.8 833.57,-48.8 833.57,-84.8"/>
<text text-anchor="middle" x="756" y="-62.6" font-family="Times,serif" font-size="14.00">FileManagerAPIService </text>
</g>
<!-- FileManagerAPIModule&#45;&gt;FileManagerAPIService  -->
<g id="edge12" class="edge">
<title>FileManagerAPIModule&#45;&gt;FileManagerAPIService </title>
<path fill="none" stroke="black" stroke-dasharray="5,2" d="M1063.16,-124.6C1063.16,-100.44 1063.16,-60.8 1063.16,-60.8 1063.16,-60.8 843.91,-60.8 843.91,-60.8"/>
<polygon fill="black" stroke="black" points="843.91,-57.3 833.91,-60.8 843.91,-64.3 843.91,-57.3"/>
</g>
<!-- LinkDownloadAPIModule&#45;&gt;AppModule -->
<g id="edge3" class="edge">
<title>LinkDownloadAPIModule&#45;&gt;AppModule</title>
<path fill="none" stroke="black" d="M1107.19,-228.83C1107.19,-253.78 1107.19,-295.8 1107.19,-295.8 1107.19,-295.8 986.68,-295.8 986.68,-295.8"/>
<polygon fill="black" stroke="black" points="986.68,-292.3 976.68,-295.8 986.68,-299.3 986.68,-292.3"/>
</g>
<!-- LinkDownloadAPIService  -->
<g id="node15" class="node">
<title>LinkDownloadAPIService </title>
<polygon fill="#fb8072" stroke="black" points="1678.3,-304.8 1509.7,-304.8 1509.7,-268.8 1678.3,-268.8 1678.3,-304.8"/>
<text text-anchor="middle" x="1594" y="-282.6" font-family="Times,serif" font-size="14.00">LinkDownloadAPIService </text>
</g>
<!-- LinkDownloadAPIModule&#45;&gt;LinkDownloadAPIService  -->
<g id="edge19" class="edge">
<title>LinkDownloadAPIModule&#45;&gt;LinkDownloadAPIService </title>
<path fill="none" stroke="black" stroke-dasharray="5,2" d="M1218.51,-216.8C1341.71,-216.8 1557.71,-216.8 1557.71,-216.8 1557.71,-216.8 1557.71,-258.77 1557.71,-258.77"/>
<polygon fill="black" stroke="black" points="1554.21,-258.77 1557.71,-268.77 1561.21,-258.77 1554.21,-258.77"/>
</g>
<!-- AppService -->
<g id="node5" class="node">
<title>AppService</title>
<ellipse fill="#fdb462" stroke="black" cx="963" cy="-210.8" rx="56.75" ry="18"/>
<text text-anchor="middle" x="963" y="-206.6" font-family="Times,serif" font-size="14.00">AppService</text>
</g>
<!-- AppService&#45;&gt;AppModule -->
<g id="edge4" class="edge">
<title>AppService&#45;&gt;AppModule</title>
<path fill="none" stroke="black" d="M941.6,-227.67C941.6,-227.67 941.6,-258.65 941.6,-258.65"/>
<polygon fill="black" stroke="black" points="938.1,-258.65 941.6,-268.65 945.1,-258.65 938.1,-258.65"/>
</g>
<!-- AuthModule&#45;&gt;FileManagerAPIModule -->
<g id="edge10" class="edge">
<title>AuthModule&#45;&gt;FileManagerAPIModule</title>
<path fill="none" stroke="black" d="M1643.2,-124.69C1643.2,-114.9 1643.2,-104.8 1643.2,-104.8 1643.2,-104.8 1159.26,-104.8 1159.26,-104.8 1159.26,-104.8 1159.26,-114.69 1159.26,-114.69"/>
<polygon fill="black" stroke="black" points="1155.76,-114.69 1159.26,-124.69 1162.76,-114.69 1155.76,-114.69"/>
</g>
<!-- AuthModule&#45;&gt;LinkDownloadAPIModule -->
<g id="edge16" class="edge">
<title>AuthModule&#45;&gt;LinkDownloadAPIModule</title>
<path fill="none" stroke="black" d="M1642.24,-161.07C1642.24,-179.36 1642.24,-204.8 1642.24,-204.8 1642.24,-204.8 1228.48,-204.8 1228.48,-204.8"/>
<polygon fill="black" stroke="black" points="1228.48,-201.3 1218.48,-204.8 1228.48,-208.3 1228.48,-201.3"/>
</g>
<!-- AuthService  -->
<g id="node7" class="node">
<title>AuthService </title>
<polygon fill="#fb8072" stroke="black" points="1735.98,-228.8 1646.02,-228.8 1646.02,-192.8 1735.98,-192.8 1735.98,-228.8"/>
<text text-anchor="middle" x="1691" y="-206.6" font-family="Times,serif" font-size="14.00">AuthService </text>
</g>
<!-- AuthModule&#45;&gt;AuthService  -->
<g id="edge6" class="edge">
<title>AuthModule&#45;&gt;AuthService </title>
<path fill="none" stroke="black" stroke-dasharray="5,2" d="M1686.02,-161.02C1686.02,-161.02 1686.02,-182.53 1686.02,-182.53"/>
<polygon fill="black" stroke="black" points="1682.52,-182.53 1686.02,-192.53 1689.52,-182.53 1682.52,-182.53"/>
</g>
<!-- AuthService -->
<g id="node8" class="node">
<title>AuthService</title>
<ellipse fill="#fdb462" stroke="black" cx="1705" cy="-66.8" rx="59.11" ry="18"/>
<text text-anchor="middle" x="1705" y="-62.6" font-family="Times,serif" font-size="14.00">AuthService</text>
</g>
<!-- AuthService&#45;&gt;AuthModule -->
<g id="edge7" class="edge">
<title>AuthService&#45;&gt;AuthModule</title>
<path fill="none" stroke="black" d="M1685.73,-84.05C1685.73,-84.05 1685.73,-114.56 1685.73,-114.56"/>
<polygon fill="black" stroke="black" points="1682.23,-114.56 1685.73,-124.56 1689.23,-114.56 1682.23,-114.56"/>
</g>
<!-- DataManagerService -->
<g id="node10" class="node">
<title>DataManagerService</title>
<ellipse fill="#fdb462" stroke="black" cx="1351" cy="-142.8" rx="92.58" ry="18"/>
<text text-anchor="middle" x="1351" y="-138.6" font-family="Times,serif" font-size="14.00">DataManagerService</text>
</g>
<!-- DataManagerService&#45;&gt;DataManagerModule -->
<g id="edge9" class="edge">
<title>DataManagerService&#45;&gt;DataManagerModule</title>
<path fill="none" stroke="black" d="M1258.13,-142.8C1232.31,-142.8 1211.18,-142.8 1211.18,-142.8 1211.18,-142.8 1211.18,-94.81 1211.18,-94.81"/>
<polygon fill="black" stroke="black" points="1214.68,-94.81 1211.18,-84.81 1207.68,-94.81 1214.68,-94.81"/>
</g>
<!-- FileManagerAPIService -->
<g id="node12" class="node">
<title>FileManagerAPIService</title>
<ellipse fill="#fdb462" stroke="black" cx="129" cy="-66.8" rx="104.79" ry="18"/>
<text text-anchor="middle" x="129" y="-62.6" font-family="Times,serif" font-size="14.00">FileManagerAPIService</text>
</g>
<!-- FileManagerAPIService&#45;&gt;FileManagerAPIModule -->
<g id="edge13" class="edge">
<title>FileManagerAPIService&#45;&gt;FileManagerAPIModule</title>
<path fill="none" stroke="black" d="M129,-84.83C129,-109.78 129,-151.8 129,-151.8 129,-151.8 1033.98,-151.8 1033.98,-151.8"/>
<polygon fill="black" stroke="black" points="1033.98,-155.3 1043.98,-151.8 1033.98,-148.3 1033.98,-155.3"/>
</g>
<!-- FileManagerFTPService -->
<g id="node13" class="node">
<title>FileManagerFTPService</title>
<ellipse fill="#fdb462" stroke="black" cx="548" cy="-66.8" rx="105.95" ry="18"/>
<text text-anchor="middle" x="548" y="-62.6" font-family="Times,serif" font-size="14.00">FileManagerFTPService</text>
</g>
<!-- FileManagerFTPService&#45;&gt;FileManagerAPIModule -->
<g id="edge14" class="edge">
<title>FileManagerFTPService&#45;&gt;FileManagerAPIModule</title>
<path fill="none" stroke="black" d="M548,-85.11C548,-104.95 548,-133.8 548,-133.8 548,-133.8 1034.32,-133.8 1034.32,-133.8"/>
<polygon fill="black" stroke="black" points="1034.32,-137.3 1044.32,-133.8 1034.32,-130.3 1034.32,-137.3"/>
</g>
<!-- FileUtilitiesService -->
<g id="node14" class="node">
<title>FileUtilitiesService</title>
<ellipse fill="#fdb462" stroke="black" cx="338" cy="-66.8" rx="86.27" ry="18"/>
<text text-anchor="middle" x="338" y="-62.6" font-family="Times,serif" font-size="14.00">FileUtilitiesService</text>
</g>
<!-- FileUtilitiesService&#45;&gt;FileManagerAPIModule -->
<g id="edge15" class="edge">
<title>FileUtilitiesService&#45;&gt;FileManagerAPIModule</title>
<path fill="none" stroke="black" d="M338,-84.81C338,-107.29 338,-142.8 338,-142.8 338,-142.8 1034.14,-142.8 1034.14,-142.8"/>
<polygon fill="black" stroke="black" points="1034.14,-146.3 1044.14,-142.8 1034.14,-139.3 1034.14,-146.3"/>
</g>
<!-- LinkDownloadAPIService -->
<g id="node16" class="node">
<title>LinkDownloadAPIService</title>
<ellipse fill="#fdb462" stroke="black" cx="1372" cy="-286.8" rx="114.05" ry="18"/>
<text text-anchor="middle" x="1372" y="-282.6" font-family="Times,serif" font-size="14.00">LinkDownloadAPIService</text>
</g>
<!-- LinkDownloadAPIService&#45;&gt;LinkDownloadAPIModule -->
<g id="edge20" class="edge">
<title>LinkDownloadAPIService&#45;&gt;LinkDownloadAPIModule</title>
<path fill="none" stroke="black" d="M1273.23,-277.8C1219.06,-277.8 1162.81,-277.8 1162.81,-277.8 1162.81,-277.8 1162.81,-239.11 1162.81,-239.11"/>
<polygon fill="black" stroke="black" points="1166.31,-239.11 1162.81,-229.11 1159.31,-239.11 1166.31,-239.11"/>
</g>
<!-- ReadFileService  -->
<g id="node17" class="node">
<title>ReadFileService </title>
<polygon fill="#fb8072" stroke="black" points="1935.02,-228.8 1822.98,-228.8 1822.98,-192.8 1935.02,-192.8 1935.02,-228.8"/>
<text text-anchor="middle" x="1879" y="-206.6" font-family="Times,serif" font-size="14.00">ReadFileService </text>
</g>
<!-- ReadFileModule -->
<g id="node18" class="node">
<title>ReadFileModule</title>
<polygon fill="#8dd3c7" stroke="black" points="1934.1,-160.8 1931.1,-164.8 1910.1,-164.8 1907.1,-160.8 1823.9,-160.8 1823.9,-124.8 1934.1,-124.8 1934.1,-160.8"/>
<text text-anchor="middle" x="1879" y="-138.6" font-family="Times,serif" font-size="14.00">ReadFileModule</text>
</g>
<!-- ReadFileModule&#45;&gt;ReadFileService  -->
<g id="edge21" class="edge">
<title>ReadFileModule&#45;&gt;ReadFileService </title>
<path fill="none" stroke="black" stroke-dasharray="5,2" d="M1879,-161.02C1879,-161.02 1879,-182.53 1879,-182.53"/>
<polygon fill="black" stroke="black" points="1875.5,-182.53 1879,-192.53 1882.5,-182.53 1875.5,-182.53"/>
</g>
<!-- ReadFileService -->
<g id="node19" class="node">
<title>ReadFileService</title>
<ellipse fill="#fdb462" stroke="black" cx="1879" cy="-66.8" rx="74.72" ry="18"/>
<text text-anchor="middle" x="1879" y="-62.6" font-family="Times,serif" font-size="14.00">ReadFileService</text>
</g>
<!-- ReadFileService&#45;&gt;ReadFileModule -->
<g id="edge22" class="edge">
<title>ReadFileService&#45;&gt;ReadFileModule</title>
<path fill="none" stroke="black" d="M1879,-84.81C1879,-84.81 1879,-114.65 1879,-114.65"/>
<polygon fill="black" stroke="black" points="1875.5,-114.65 1879,-124.65 1882.5,-114.65 1875.5,-114.65"/>
</g>
</g>
</svg>
