<?xml version="1.0" encoding="UTF-8" standalone="no"?>
<!DOCTYPE svg PUBLIC "-//W3C//DTD SVG 1.1//EN"
 "http://www.w3.org/Graphics/SVG/1.1/DTD/svg11.dtd">
<!-- Generated by graphviz version 3.0.0 (20220226.1711)
 -->
<!-- Title: dependencies Pages: 1 -->
<svg width="686pt" height="174pt"
 viewBox="0.00 0.00 686.00 173.80" xmlns="http://www.w3.org/2000/svg" xmlns:xlink="http://www.w3.org/1999/xlink">
<g id="graph0" class="graph" transform="scale(1 1) rotate(0) translate(4 169.8)">
<title>dependencies</title>
<polygon fill="white" stroke="transparent" points="-4,4 -4,-169.8 682,-169.8 682,4 -4,4"/>
<text text-anchor="middle" x="339" y="-8.2" font-family="sans-serif" font-size="14.00">dependencies</text>
<g id="clust1" class="cluster">
<title>cluster_AppModule</title>
<polygon fill="none" stroke="black" stroke-dasharray="1,5" points="8,-32.8 8,-157.8 670,-157.8 670,-32.8 8,-32.8"/>
</g>
<g id="clust3" class="cluster">
<title>cluster_AppModule_imports</title>
<polygon fill="none" stroke="black" points="154,-40.8 154,-92.8 662,-92.8 662,-40.8 154,-40.8"/>
</g>
<g id="clust6" class="cluster">
<title>cluster_AppModule_providers</title>
<polygon fill="none" stroke="black" points="16,-40.8 16,-92.8 146,-92.8 146,-40.8 16,-40.8"/>
</g>
<!-- DataManagerModule -->
<g id="node1" class="node">
<title>DataManagerModule</title>
<polygon fill="#8dd3c7" stroke="black" points="653.73,-84.8 650.73,-88.8 629.73,-88.8 626.73,-84.8 518.27,-84.8 518.27,-48.8 653.73,-48.8 653.73,-84.8"/>
<text text-anchor="middle" x="586" y="-62.6" font-family="Times,serif" font-size="14.00">DataManagerModule</text>
</g>
<!-- AppModule -->
<g id="node4" class="node">
<title>AppModule</title>
<polygon fill="#8dd3c7" stroke="black" points="375.66,-149.8 372.66,-153.8 351.66,-153.8 348.66,-149.8 292.34,-149.8 292.34,-113.8 375.66,-113.8 375.66,-149.8"/>
<text text-anchor="middle" x="334" y="-127.6" font-family="Times,serif" font-size="14.00">AppModule</text>
</g>
<!-- DataManagerModule&#45;&gt;AppModule -->
<g id="edge1" class="edge">
<title>DataManagerModule&#45;&gt;AppModule</title>
<path fill="none" stroke="black" d="M586,-84.91C586,-104.14 586,-131.8 586,-131.8 586,-131.8 385.9,-131.8 385.9,-131.8"/>
<polygon fill="black" stroke="black" points="385.9,-128.3 375.9,-131.8 385.9,-135.3 385.9,-128.3"/>
</g>
<!-- FileManagerAPIModule -->
<g id="node2" class="node">
<title>FileManagerAPIModule</title>
<polygon fill="#8dd3c7" stroke="black" points="499.64,-84.8 496.64,-88.8 475.64,-88.8 472.64,-84.8 346.36,-84.8 346.36,-48.8 499.64,-48.8 499.64,-84.8"/>
<text text-anchor="middle" x="423" y="-62.6" font-family="Times,serif" font-size="14.00">FileManagerAPIModule</text>
</g>
<!-- FileManagerAPIModule&#45;&gt;AppModule -->
<g id="edge2" class="edge">
<title>FileManagerAPIModule&#45;&gt;AppModule</title>
<path fill="none" stroke="black" d="M361.01,-84.91C361.01,-84.91 361.01,-103.79 361.01,-103.79"/>
<polygon fill="black" stroke="black" points="357.51,-103.79 361.01,-113.79 364.51,-103.79 357.51,-103.79"/>
</g>
<!-- LinkDownloadAPIModule -->
<g id="node3" class="node">
<title>LinkDownloadAPIModule</title>
<polygon fill="#8dd3c7" stroke="black" points="328.38,-84.8 325.38,-88.8 304.38,-88.8 301.38,-84.8 161.62,-84.8 161.62,-48.8 328.38,-48.8 328.38,-84.8"/>
<text text-anchor="middle" x="245" y="-62.6" font-family="Times,serif" font-size="14.00">LinkDownloadAPIModule</text>
</g>
<!-- LinkDownloadAPIModule&#45;&gt;AppModule -->
<g id="edge3" class="edge">
<title>LinkDownloadAPIModule&#45;&gt;AppModule</title>
<path fill="none" stroke="black" d="M310.3,-84.91C310.3,-84.91 310.3,-103.79 310.3,-103.79"/>
<polygon fill="black" stroke="black" points="306.8,-103.79 310.3,-113.79 313.8,-103.79 306.8,-103.79"/>
</g>
<!-- AppService -->
<g id="node5" class="node">
<title>AppService</title>
<ellipse fill="#fdb462" stroke="black" cx="81" cy="-66.8" rx="56.75" ry="18"/>
<text text-anchor="middle" x="81" y="-62.6" font-family="Times,serif" font-size="14.00">AppService</text>
</g>
<!-- AppService&#45;&gt;AppModule -->
<g id="edge4" class="edge">
<title>AppService&#45;&gt;AppModule</title>
<path fill="none" stroke="black" d="M81,-84.91C81,-104.14 81,-131.8 81,-131.8 81,-131.8 282.22,-131.8 282.22,-131.8"/>
<polygon fill="black" stroke="black" points="282.22,-135.3 292.22,-131.8 282.22,-128.3 282.22,-135.3"/>
</g>
</g>
</svg>
