<?xml version="1.0" encoding="UTF-8" standalone="no"?>
<!DOCTYPE svg PUBLIC "-//W3C//DTD SVG 1.1//EN"
 "http://www.w3.org/Graphics/SVG/1.1/DTD/svg11.dtd">
<!-- Generated by graphviz version 3.0.0 (20220226.1711)
 -->
<!-- Title: dependencies Pages: 1 -->
<svg width="722pt" height="247pt"
 viewBox="0.00 0.00 722.00 246.80" xmlns="http://www.w3.org/2000/svg" xmlns:xlink="http://www.w3.org/1999/xlink">
<g id="graph0" class="graph" transform="scale(1 1) rotate(0) translate(4 242.8)">
<title>dependencies</title>
<polygon fill="white" stroke="transparent" points="-4,4 -4,-242.8 718,-242.8 718,4 -4,4"/>
<text text-anchor="middle" x="357" y="-8.2" font-family="sans-serif" font-size="14.00">dependencies</text>
<g id="clust1" class="cluster">
<title>cluster_LinkDownloadAPIModule</title>
<polygon fill="none" stroke="black" stroke-dasharray="1,5" points="8,-32.8 8,-230.8 706,-230.8 706,-32.8 8,-32.8"/>
</g>
<g id="clust4" class="cluster">
<title>cluster_LinkDownloadAPIModule_exports</title>
<polygon fill="none" stroke="black" points="342,-170.8 342,-222.8 526,-222.8 526,-170.8 342,-170.8"/>
</g>
<g id="clust3" class="cluster">
<title>cluster_LinkDownloadAPIModule_imports</title>
<polygon fill="none" stroke="black" points="268,-40.8 268,-92.8 698,-92.8 698,-40.8 268,-40.8"/>
</g>
<g id="clust6" class="cluster">
<title>cluster_LinkDownloadAPIModule_providers</title>
<polygon fill="none" stroke="black" points="16,-40.8 16,-92.8 260,-92.8 260,-40.8 16,-40.8"/>
</g>
<!-- AuthModule -->
<g id="node1" class="node">
<title>AuthModule</title>
<polygon fill="#8dd3c7" stroke="black" points="689.55,-84.8 686.55,-88.8 665.55,-88.8 662.55,-84.8 602.45,-84.8 602.45,-48.8 689.55,-48.8 689.55,-84.8"/>
<text text-anchor="middle" x="646" y="-62.6" font-family="Times,serif" font-size="14.00">AuthModule</text>
</g>
<!-- LinkDownloadAPIModule -->
<g id="node4" class="node">
<title>LinkDownloadAPIModule</title>
<polygon fill="#8dd3c7" stroke="black" points="517.38,-149.8 514.38,-153.8 493.38,-153.8 490.38,-149.8 350.62,-149.8 350.62,-113.8 517.38,-113.8 517.38,-149.8"/>
<text text-anchor="middle" x="434" y="-127.6" font-family="Times,serif" font-size="14.00">LinkDownloadAPIModule</text>
</g>
<!-- AuthModule&#45;&gt;LinkDownloadAPIModule -->
<g id="edge1" class="edge">
<title>AuthModule&#45;&gt;LinkDownloadAPIModule</title>
<path fill="none" stroke="black" d="M646,-84.91C646,-104.14 646,-131.8 646,-131.8 646,-131.8 527.48,-131.8 527.48,-131.8"/>
<polygon fill="black" stroke="black" points="527.48,-128.3 517.48,-131.8 527.48,-135.3 527.48,-128.3"/>
</g>
<!-- DataManagerModule -->
<g id="node2" class="node">
<title>DataManagerModule</title>
<polygon fill="#8dd3c7" stroke="black" points="583.73,-84.8 580.73,-88.8 559.73,-88.8 556.73,-84.8 448.27,-84.8 448.27,-48.8 583.73,-48.8 583.73,-84.8"/>
<text text-anchor="middle" x="516" y="-62.6" font-family="Times,serif" font-size="14.00">DataManagerModule</text>
</g>
<!-- DataManagerModule&#45;&gt;LinkDownloadAPIModule -->
<g id="edge2" class="edge">
<title>DataManagerModule&#45;&gt;LinkDownloadAPIModule</title>
<path fill="none" stroke="black" d="M482.79,-84.91C482.79,-84.91 482.79,-103.79 482.79,-103.79"/>
<polygon fill="black" stroke="black" points="479.29,-103.79 482.79,-113.79 486.29,-103.79 479.29,-103.79"/>
</g>
<!-- FileManagerAPIModule -->
<g id="node3" class="node">
<title>FileManagerAPIModule</title>
<polygon fill="#8dd3c7" stroke="black" points="429.64,-84.8 426.64,-88.8 405.64,-88.8 402.64,-84.8 276.36,-84.8 276.36,-48.8 429.64,-48.8 429.64,-84.8"/>
<text text-anchor="middle" x="353" y="-62.6" font-family="Times,serif" font-size="14.00">FileManagerAPIModule</text>
</g>
<!-- FileManagerAPIModule&#45;&gt;LinkDownloadAPIModule -->
<g id="edge3" class="edge">
<title>FileManagerAPIModule&#45;&gt;LinkDownloadAPIModule</title>
<path fill="none" stroke="black" d="M390.19,-84.91C390.19,-84.91 390.19,-103.79 390.19,-103.79"/>
<polygon fill="black" stroke="black" points="386.69,-103.79 390.19,-113.79 393.69,-103.79 386.69,-103.79"/>
</g>
<!-- LinkDownloadAPIService  -->
<g id="node5" class="node">
<title>LinkDownloadAPIService </title>
<polygon fill="#fb8072" stroke="black" points="518.3,-214.8 349.7,-214.8 349.7,-178.8 518.3,-178.8 518.3,-214.8"/>
<text text-anchor="middle" x="434" y="-192.6" font-family="Times,serif" font-size="14.00">LinkDownloadAPIService </text>
</g>
<!-- LinkDownloadAPIModule&#45;&gt;LinkDownloadAPIService  -->
<g id="edge4" class="edge">
<title>LinkDownloadAPIModule&#45;&gt;LinkDownloadAPIService </title>
<path fill="none" stroke="black" stroke-dasharray="5,2" d="M434,-149.91C434,-149.91 434,-168.79 434,-168.79"/>
<polygon fill="black" stroke="black" points="430.5,-168.79 434,-178.79 437.5,-168.79 430.5,-168.79"/>
</g>
<!-- LinkDownloadAPIService -->
<g id="node6" class="node">
<title>LinkDownloadAPIService</title>
<ellipse fill="#fdb462" stroke="black" cx="138" cy="-66.8" rx="114.05" ry="18"/>
<text text-anchor="middle" x="138" y="-62.6" font-family="Times,serif" font-size="14.00">LinkDownloadAPIService</text>
</g>
<!-- LinkDownloadAPIService&#45;&gt;LinkDownloadAPIModule -->
<g id="edge5" class="edge">
<title>LinkDownloadAPIService&#45;&gt;LinkDownloadAPIModule</title>
<path fill="none" stroke="black" d="M138,-84.91C138,-104.14 138,-131.8 138,-131.8 138,-131.8 340.37,-131.8 340.37,-131.8"/>
<polygon fill="black" stroke="black" points="340.37,-135.3 350.37,-131.8 340.37,-128.3 340.37,-135.3"/>
</g>
</g>
</svg>
