<?xml version="1.0" encoding="UTF-8" standalone="no"?>
<!DOCTYPE svg PUBLIC "-//W3C//DTD SVG 1.1//EN"
 "http://www.w3.org/Graphics/SVG/1.1/DTD/svg11.dtd">
<!-- Generated by graphviz version 3.0.0 (20220226.1711)
 -->
<!-- Title: dependencies Pages: 1 -->
<svg width="729pt" height="247pt"
 viewBox="0.00 0.00 729.00 246.80" xmlns="http://www.w3.org/2000/svg" xmlns:xlink="http://www.w3.org/1999/xlink">
<g id="graph0" class="graph" transform="scale(1 1) rotate(0) translate(4 242.8)">
<title>dependencies</title>
<polygon fill="white" stroke="transparent" points="-4,4 -4,-242.8 725,-242.8 725,4 -4,4"/>
<text text-anchor="middle" x="360.5" y="-8.2" font-family="sans-serif" font-size="14.00">dependencies</text>
<g id="clust1" class="cluster">
<title>cluster_AppModule</title>
<polygon fill="none" stroke="black" stroke-dasharray="1,5" points="8,-32.8 8,-230.8 713,-230.8 713,-32.8 8,-32.8"/>
</g>
<g id="clust3" class="cluster">
<title>cluster_AppModule_imports</title>
<polygon fill="none" stroke="black" points="601,-40.8 601,-92.8 705,-92.8 705,-40.8 601,-40.8"/>
</g>
<g id="clust6" class="cluster">
<title>cluster_AppModule_providers</title>
<polygon fill="none" stroke="black" points="16,-40.8 16,-92.8 593,-92.8 593,-40.8 16,-40.8"/>
</g>
<g id="clust4" class="cluster">
<title>cluster_AppModule_exports</title>
<polygon fill="none" stroke="black" points="322,-170.8 322,-222.8 424,-222.8 424,-170.8 322,-170.8"/>
</g>
<!-- AuthModule -->
<g id="node1" class="node">
<title>AuthModule</title>
<polygon fill="#8dd3c7" stroke="black" points="696.55,-84.8 693.55,-88.8 672.55,-88.8 669.55,-84.8 609.45,-84.8 609.45,-48.8 696.55,-48.8 696.55,-84.8"/>
<text text-anchor="middle" x="653" y="-62.6" font-family="Times,serif" font-size="14.00">AuthModule</text>
</g>
<!-- AppModule -->
<g id="node2" class="node">
<title>AppModule</title>
<polygon fill="#8dd3c7" stroke="black" points="414.66,-149.8 411.66,-153.8 390.66,-153.8 387.66,-149.8 331.34,-149.8 331.34,-113.8 414.66,-113.8 414.66,-149.8"/>
<text text-anchor="middle" x="373" y="-127.6" font-family="Times,serif" font-size="14.00">AppModule</text>
</g>
<!-- AuthModule&#45;&gt;AppModule -->
<g id="edge1" class="edge">
<title>AuthModule&#45;&gt;AppModule</title>
<path fill="none" stroke="black" d="M653,-85.08C653,-106.12 653,-137.8 653,-137.8 653,-137.8 424.92,-137.8 424.92,-137.8"/>
<polygon fill="black" stroke="black" points="424.92,-134.3 414.92,-137.8 424.92,-141.3 424.92,-134.3"/>
</g>
<!-- AppService  -->
<g id="node3" class="node">
<title>AppService </title>
<polygon fill="#fb8072" stroke="black" points="415.59,-214.8 330.41,-214.8 330.41,-178.8 415.59,-178.8 415.59,-214.8"/>
<text text-anchor="middle" x="373" y="-192.6" font-family="Times,serif" font-size="14.00">AppService </text>
</g>
<!-- AppModule&#45;&gt;AppService  -->
<g id="edge2" class="edge">
<title>AppModule&#45;&gt;AppService </title>
<path fill="none" stroke="black" stroke-dasharray="5,2" d="M373,-149.91C373,-149.91 373,-168.79 373,-168.79"/>
<polygon fill="black" stroke="black" points="369.5,-168.79 373,-178.79 376.5,-168.79 369.5,-168.79"/>
</g>
<!-- AppService -->
<g id="node4" class="node">
<title>AppService</title>
<ellipse fill="#fdb462" stroke="black" cx="528" cy="-66.8" rx="56.75" ry="18"/>
<text text-anchor="middle" x="528" y="-62.6" font-family="Times,serif" font-size="14.00">AppService</text>
</g>
<!-- AppService&#45;&gt;AppModule -->
<g id="edge3" class="edge">
<title>AppService&#45;&gt;AppModule</title>
<path fill="none" stroke="black" d="M528,-84.82C528,-102.17 528,-125.8 528,-125.8 528,-125.8 424.95,-125.8 424.95,-125.8"/>
<polygon fill="black" stroke="black" points="424.95,-122.3 414.95,-125.8 424.95,-129.3 424.95,-122.3"/>
</g>
<!-- CommandService -->
<g id="node5" class="node">
<title>CommandService</title>
<ellipse fill="#fdb462" stroke="black" cx="373" cy="-66.8" rx="80.46" ry="18"/>
<text text-anchor="middle" x="373" y="-62.6" font-family="Times,serif" font-size="14.00">CommandService</text>
</g>
<!-- CommandService&#45;&gt;AppModule -->
<g id="edge4" class="edge">
<title>CommandService&#45;&gt;AppModule</title>
<path fill="none" stroke="black" d="M373,-84.91C373,-84.91 373,-103.79 373,-103.79"/>
<polygon fill="black" stroke="black" points="369.5,-103.79 373,-113.79 376.5,-103.79 369.5,-103.79"/>
</g>
<!-- TaskService -->
<g id="node6" class="node">
<title>TaskService</title>
<ellipse fill="#fdb462" stroke="black" cx="216" cy="-66.8" rx="58.53" ry="18"/>
<text text-anchor="middle" x="216" y="-62.6" font-family="Times,serif" font-size="14.00">TaskService</text>
</g>
<!-- TaskService&#45;&gt;AppModule -->
<g id="edge5" class="edge">
<title>TaskService&#45;&gt;AppModule</title>
<path fill="none" stroke="black" d="M216,-84.82C216,-102.17 216,-125.8 216,-125.8 216,-125.8 320.93,-125.8 320.93,-125.8"/>
<polygon fill="black" stroke="black" points="320.93,-129.3 330.93,-125.8 320.93,-122.3 320.93,-129.3"/>
</g>
<!-- TreeService -->
<g id="node7" class="node">
<title>TreeService</title>
<ellipse fill="#fdb462" stroke="black" cx="82" cy="-66.8" rx="57.86" ry="18"/>
<text text-anchor="middle" x="82" y="-62.6" font-family="Times,serif" font-size="14.00">TreeService</text>
</g>
<!-- TreeService&#45;&gt;AppModule -->
<g id="edge6" class="edge">
<title>TreeService&#45;&gt;AppModule</title>
<path fill="none" stroke="black" d="M82,-85.08C82,-106.12 82,-137.8 82,-137.8 82,-137.8 321.31,-137.8 321.31,-137.8"/>
<polygon fill="black" stroke="black" points="321.31,-141.3 331.31,-137.8 321.31,-134.3 321.31,-141.3"/>
</g>
</g>
</svg>
