<?xml version="1.0" encoding="UTF-8" standalone="no"?>
<!DOCTYPE svg PUBLIC "-//W3C//DTD SVG 1.1//EN"
 "http://www.w3.org/Graphics/SVG/1.1/DTD/svg11.dtd">
<!-- Generated by graphviz version 3.0.0 (20220226.1711)
 -->
<!-- Title: dependencies Pages: 1 -->
<svg width="242pt" height="247pt"
 viewBox="0.00 0.00 242.00 246.80" xmlns="http://www.w3.org/2000/svg" xmlns:xlink="http://www.w3.org/1999/xlink">
<g id="graph0" class="graph" transform="scale(1 1) rotate(0) translate(4 242.8)">
<title>dependencies</title>
<polygon fill="white" stroke="transparent" points="-4,4 -4,-242.8 238,-242.8 238,4 -4,4"/>
<text text-anchor="middle" x="117" y="-8.2" font-family="sans-serif" font-size="14.00">dependencies</text>
<g id="clust1" class="cluster">
<title>cluster_DataManagerModule</title>
<polygon fill="none" stroke="black" stroke-dasharray="1,5" points="8,-32.8 8,-230.8 226,-230.8 226,-32.8 8,-32.8"/>
</g>
<g id="clust6" class="cluster">
<title>cluster_DataManagerModule_providers</title>
<polygon fill="none" stroke="black" points="16,-40.8 16,-92.8 218,-92.8 218,-40.8 16,-40.8"/>
</g>
<g id="clust4" class="cluster">
<title>cluster_DataManagerModule_exports</title>
<polygon fill="none" stroke="black" points="40,-170.8 40,-222.8 194,-222.8 194,-170.8 40,-170.8"/>
</g>
<!-- DataManagerService  -->
<g id="node1" class="node">
<title>DataManagerService </title>
<polygon fill="#fb8072" stroke="black" points="185.66,-214.8 48.34,-214.8 48.34,-178.8 185.66,-178.8 185.66,-214.8"/>
<text text-anchor="middle" x="117" y="-192.6" font-family="Times,serif" font-size="14.00">DataManagerService </text>
</g>
<!-- DataManagerModule -->
<g id="node2" class="node">
<title>DataManagerModule</title>
<polygon fill="#8dd3c7" stroke="black" points="184.73,-149.8 181.73,-153.8 160.73,-153.8 157.73,-149.8 49.27,-149.8 49.27,-113.8 184.73,-113.8 184.73,-149.8"/>
<text text-anchor="middle" x="117" y="-127.6" font-family="Times,serif" font-size="14.00">DataManagerModule</text>
</g>
<!-- DataManagerModule&#45;&gt;DataManagerService  -->
<g id="edge1" class="edge">
<title>DataManagerModule&#45;&gt;DataManagerService </title>
<path fill="none" stroke="black" stroke-dasharray="5,2" d="M117,-149.91C117,-149.91 117,-168.79 117,-168.79"/>
<polygon fill="black" stroke="black" points="113.5,-168.79 117,-178.79 120.5,-168.79 113.5,-168.79"/>
</g>
<!-- DataManagerService -->
<g id="node3" class="node">
<title>DataManagerService</title>
<ellipse fill="#fdb462" stroke="black" cx="117" cy="-66.8" rx="92.58" ry="18"/>
<text text-anchor="middle" x="117" y="-62.6" font-family="Times,serif" font-size="14.00">DataManagerService</text>
</g>
<!-- DataManagerService&#45;&gt;DataManagerModule -->
<g id="edge2" class="edge">
<title>DataManagerService&#45;&gt;DataManagerModule</title>
<path fill="none" stroke="black" d="M117,-84.91C117,-84.91 117,-103.79 117,-103.79"/>
<polygon fill="black" stroke="black" points="113.5,-103.79 117,-113.79 120.5,-103.79 113.5,-103.79"/>
</g>
</g>
</svg>
